<svg width="400" height="400" viewBox="0 0 400 400" fill="none" xmlns="http://www.w3.org/2000/svg">
<g clip-path="url(#clip0_609_5)">
<path fill-rule="evenodd" clip-rule="evenodd" d="M104.23 272.266C105.18 273.509 106.14 274.736 107.13 275.942L110.61 280C132.58 304.552 164.5 320 200 320C224.11 320 246.57 312.873 265.37 300.578L299.37 373.502C270.12 390.376 236.17 400 200 400C118.06 400 47.57 350.62 16.72 280L12.9099 270.699C4.55991 248.724 0 224.89 0 200L0.23999 190.653L0.409912 187.807L0.909912 181.24L1.20996 178.193L2.09009 171.275L2.3999 169.047L3.98999 160.134L4.42993 158.139L6.01001 151.284L6.77002 148.404L8.5 142.307L9.32007 139.616L11.95 131.848L12.1799 131.176L15.4299 122.946L16.49 120.501L19.0901 114.756L20.3799 112.072L23.3401 106.282L24.45 104.181L28.8 96.625L29.78 95.065L33.53 89.222L35.1899 86.786L38.7 81.852L40.4199 79.518L44.96 73.744L45.8301 72.651L51.47 66.143L53.3201 64.154L57.51 59.751L59.72 57.545L64.1201 53.348L66.1201 51.495L72.5701 45.907L74.0901 44.689L79.3999 40.514L81.96 38.625L86.6101 35.315L89.28 33.488L94.74 29.987L96.6699 28.775L103.99 24.56L106.7 23.128L111.8 20.514L114.97 18.991L120.05 16.692L123.09 15.369L130.93 12.275L164.95 85.224C115.79 100.22 80 145.963 80 200V200.675C80.02 204.166 80.19 207.622 80.5 211.037L80.49 210.869L80.6799 212.56L81.0601 215.948L81.3601 217.945L81.8401 220.962L82.24 223.064L82.8201 225.907L83.3301 228.046L84.01 230.778L84.6001 232.921L85.3899 235.572L86.0701 237.698L86.96 240.285L87.73 242.38L88.72 244.914L89.5701 246.966L90.6799 249.457L91.6001 251.452L92.8101 253.914L93.79 255.835L95.1399 258.29L96.1599 260.113L97.6599 262.609L98.6899 264.28L100.47 266.96L101.38 268.332L104.23 272.266L107.24 276.065L107.13 275.942L104.23 272.266ZM101.49 268.486C102.38 269.764 103.29 271.023 104.23 272.264L101.49 268.486ZM98.8701 264.573C99.6501 265.796 100.46 267.004 101.28 268.196L100.47 266.96L98.8701 264.573ZM98.8701 264.572L98.6899 264.28L98.51 264.01C98.63 264.198 98.7501 264.385 98.8701 264.572ZM96.4199 260.579C97.0999 261.733 97.79 262.875 98.51 264.004L97.6599 262.609L96.4199 260.579ZM96.3999 260.552L96.1599 260.113L95.9099 259.699C96.0699 259.984 96.2399 260.268 96.3999 260.552ZM94.1101 256.463C94.6901 257.549 95.2899 258.625 95.8999 259.691L95.1399 258.29L94.1101 256.463ZM94.1101 256.454L93.79 255.835L93.48 255.271C93.69 255.666 93.9001 256.061 94.1101 256.454ZM91.97 252.265C92.46 253.272 92.96 254.272 93.48 255.263L92.8101 253.914L91.97 252.265ZM91.96 252.238L91.6001 251.452L91.24 250.731C91.47 251.236 91.72 251.738 91.96 252.238ZM89.99 247.963C90.39 248.89 90.81 249.811 91.24 250.726L90.6799 249.457L89.99 247.963ZM89.98 247.945L89.5701 246.966L89.1799 246.086C89.4399 246.708 89.71 247.328 89.98 247.945ZM88.1699 243.57C88.4999 244.413 88.8399 245.25 89.1799 246.083L88.72 244.914L88.1699 243.57ZM87.3301 241.357C87.6001 242.095 87.8799 242.829 88.1599 243.559L87.73 242.38L87.3301 241.357ZM86.53 239.096C86.78 239.842 87.0501 240.584 87.3201 241.323L86.96 240.285L86.53 239.096ZM85.6699 236.511C85.9399 237.373 86.23 238.231 86.52 239.085L86.0701 237.698L85.6699 236.511ZM85.05 234.54C85.25 235.191 85.4499 235.839 85.6599 236.486L85.3899 235.572L85.05 234.54ZM84.21 231.58C84.48 232.57 84.76 233.554 85.05 234.533L84.6001 232.921L84.21 231.58ZM84.2 231.558L84.01 230.778L83.76 229.905C83.91 230.457 84.0499 231.008 84.2 231.558ZM82.95 226.553C83.21 227.675 83.48 228.792 83.76 229.905L83.3301 228.046L82.95 226.553ZM82.6599 225.2C82.7499 225.651 82.85 226.102 82.95 226.551L82.8201 225.907L82.6599 225.2ZM81.9199 221.456C82.1399 222.71 82.3899 223.958 82.6599 225.199L82.24 223.064L81.9199 221.456ZM81.74 220.426C81.79 220.77 81.8499 221.113 81.9199 221.453L81.8401 220.962L81.74 220.426ZM81.1001 216.283C81.2901 217.671 81.5 219.051 81.74 220.425L81.3601 217.945L81.1001 216.283ZM81.03 215.817L81.1001 216.28L81.0601 215.948L81.01 215.587L81.03 215.817ZM80.5 211.04C80.64 212.564 80.81 214.08 81.01 215.586L80.6799 212.56L80.5 211.04Z" fill="black"/>
<path fill-rule="evenodd" clip-rule="evenodd" d="M250.78 80L213.48 0H261.91V0.0130005C338.29 1.03 400 63.365 400 140C400 149.372 397.31 167.382 397.31 167.382L395.86 173.76L395.44 175.423L393.92 180.805L393.64 181.746L391.58 187.837L391.04 189.267L389.08 194.182L388.54 195.467L385.88 201.257L385.35 202.321L382.87 207.063L382.1 208.455L378.87 213.932L378.6 214.355L375.36 219.254L374.41 220.615L370.99 225.263L370.63 225.745L366.65 230.623L365.59 231.849L361.49 236.387L356.49 241.391L351.24 246.138L345.76 250.619L340.05 254.823L334.24 258.67L334.13 258.739L299.72 184.94C306.05 179.34 311.18 172.413 314.68 164.596C315.97 161.787 317.04 158.859 317.87 155.834L318.13 154.803C319.36 150.073 320 145.111 320 140C320 122.675 312.64 107.053 300.84 96.146C299.88 95.24 298.89 94.366 297.87 93.525L297.96 93.608L297.62 93.334L294.89 91.245L294.49 90.952L291.6 89.025L291.28 88.826L286.85 86.378L285.57 85.755L280.99 83.795C280.85 83.741 280.7 83.686 280.55 83.633L279.98 83.432L277.79 82.711L277.93 82.749C274.82 81.78 271.6 81.063 268.29 80.62C265.86 80.23 263.37 80.04 260.84 80.006L260.69 80H250.78ZM297.62 93.334L297.86 93.522C297.35 93.099 296.83 92.685 296.3 92.279L297.62 93.334ZM294.89 91.245L295.38 91.587C295.16 91.428 294.94 91.27 294.72 91.113L294.89 91.245ZM294.49 90.952L294.7 91.094C294.4 90.878 294.09 90.665 293.79 90.456L294.49 90.952ZM291.6 89.025L292.59 89.652C292.21 89.406 291.83 89.163 291.45 88.925L291.6 89.025ZM288.05 86.973L291.35 88.867C290.27 88.202 289.17 87.57 288.05 86.973ZM286.85 86.378L287.81 86.846C287.34 86.598 286.87 86.356 286.39 86.121L286.85 86.378ZM285.57 85.755L286.08 85.973C285.59 85.731 285.08 85.496 284.57 85.268L285.57 85.755ZM281.05 83.817L284.06 85.041C283.07 84.606 282.07 84.198 281.05 83.817ZM279.98 83.432L280.07 83.46C279.92 83.407 279.77 83.355 279.62 83.303L279.98 83.432Z" fill="black"/>
</g>
<defs>
<clipPath id="clip0_609_5">
<rect width="400" height="400" fill="white"/>
</clipPath>
</defs>
</svg>
